<svg xmlns="http://www.w3.org/2000/svg" xmlns:xlink="http://www.w3.org/1999/xlink" width="500" zoomAndPan="magnify" viewBox="0 0 375 374.999991" height="500" preserveAspectRatio="xMidYMid meet" version="1.0"><defs><clipPath id="9f438f6a8f"><path d="M 13.261719 215 L 348 215 L 348 303.777344 L 13.261719 303.777344 Z M 13.261719 215 " clip-rule="nonzero"/></clipPath><clipPath id="982b18da00"><path d="M 13.261719 95 L 362 95 L 362 303.777344 L 13.261719 303.777344 Z M 13.261719 95 " clip-rule="nonzero"/></clipPath><clipPath id="76367e1faa"><path d="M 13.261719 15.777344 L 242 15.777344 L 242 303.777344 L 13.261719 303.777344 Z M 13.261719 15.777344 " clip-rule="nonzero"/></clipPath></defs><g clip-path="url(#9f438f6a8f)"><path fill="#61ccff" d="M 297.527344 217.117188 C 174.078125 208.210938 86.59375 246.597656 13.261719 303.640625 C 59.417969 280.925781 117.457031 267.394531 180.542969 267.394531 C 243.609375 267.394531 301.648438 280.925781 347.800781 303.640625 Z M 297.527344 217.117188 " fill-opacity="1" fill-rule="evenodd"/></g><g clip-path="url(#982b18da00)"><path fill="#409ae8" d="M 13.261719 303.640625 C 86.59375 246.597656 174.078125 208.210938 297.527344 217.117188 L 361.730469 95.453125 C 320.082031 99.234375 279.8125 107.160156 241.304688 120.410156 C 154.964844 150.128906 77.449219 206.710938 13.261719 303.640625 Z M 13.261719 303.640625 " fill-opacity="1" fill-rule="evenodd"/></g><g clip-path="url(#76367e1faa)"><path fill="#7e57c2" d="M 13.261719 303.640625 C 77.449219 206.710938 154.964844 150.128906 241.304688 120.410156 L 180.542969 15.835938 Z M 13.261719 303.640625 " fill-opacity="1" fill-rule="evenodd"/></g></svg>